<svg xmlns="http://www.w3.org/2000/svg" xmlns:xlink="http://www.w3.org/1999/xlink" width="48" zoomAndPan="magnify" viewBox="0 0 36 36.000001" height="48" preserveAspectRatio="xMidYMid meet" version="1.0"><defs><g/><clipPath id="0f7b27de96"><path d="M 0.488281 0 L 35.511719 0 L 35.511719 35.027344 L 0.488281 35.027344 Z M 0.488281 0 " clip-rule="nonzero"/></clipPath><clipPath id="47da5d7896"><path d="M 0.488281 0 L 35.511719 0 L 35.511719 35.027344 L 0.488281 35.027344 Z M 0.488281 0 " clip-rule="nonzero"/></clipPath><clipPath id="ccab9d3ce8"><rect x="0" width="36" y="0" height="36"/></clipPath></defs><g clip-path="url(#0f7b27de96)"><path fill="#ffffff" d="M 0.488281 0 L 35.511719 0 L 35.511719 35.027344 L 0.488281 35.027344 Z M 0.488281 0 " fill-opacity="1" fill-rule="nonzero"/><path fill="#2d1e45" d="M 0.488281 0 L 35.511719 0 L 35.511719 35.027344 L 0.488281 35.027344 Z M 0.488281 0 " fill-opacity="1" fill-rule="nonzero"/><g transform="matrix(1, 0, 0, 1, 0.000000000000000056, 0.000000000000010582)"><g clip-path="url(#ccab9d3ce8)"><g clip-path="url(#47da5d7896)"><path fill="#2d1e45" d="M 0.488281 0 L 35.511719 0 L 35.511719 35.027344 L 0.488281 35.027344 Z M 0.488281 0 " fill-opacity="1" fill-rule="nonzero"/></g></g></g></g><g fill="#ffffff" fill-opacity="1"><g transform="translate(2.784708, 24.711314)"><g><path d="M 1.519531 0 L 1.519531 -16.855469 L 6.050781 -16.855469 L 6.050781 -2.859375 L 5.515625 -2.859375 L 5.515625 -3.394531 L 12.671875 -3.394531 L 12.671875 0.535156 L 1.519531 0.535156 Z M 2.589844 0 L 2.054688 0 L 2.054688 -0.535156 L 12.132812 -0.535156 L 12.132812 0 L 11.597656 0 L 11.597656 -2.859375 L 12.132812 -2.859375 L 12.132812 -2.320312 L 4.980469 -2.320312 L 4.980469 -16.320312 L 5.515625 -16.320312 L 5.515625 -15.785156 L 2.054688 -15.785156 L 2.054688 -16.320312 L 2.589844 -16.320312 Z M 2.589844 0 "/></g></g></g><g fill="#ffffff" fill-opacity="1"><g transform="translate(15.699876, 24.711314)"><g><path d="M 15.425781 0.535156 L 11.441406 0.535156 L 11.441406 -7.042969 L 11.976562 -7.042969 L 11.976562 -6.507812 L 5.515625 -6.507812 L 5.515625 -7.042969 L 6.050781 -7.042969 L 6.050781 0.535156 L 1.519531 0.535156 L 1.519531 -16.855469 L 6.050781 -16.855469 L 6.050781 -9.925781 L 5.515625 -9.925781 L 5.515625 -10.460938 L 11.976562 -10.460938 L 11.976562 -9.925781 L 11.441406 -9.925781 L 11.441406 -16.855469 L 15.964844 -16.855469 L 15.964844 0.535156 Z M 15.425781 -0.535156 L 15.425781 0 L 14.890625 0 L 14.890625 -16.320312 L 15.425781 -16.320312 L 15.425781 -15.785156 L 11.976562 -15.785156 L 11.976562 -16.320312 L 12.515625 -16.320312 L 12.515625 -9.386719 L 4.980469 -9.386719 L 4.980469 -16.320312 L 5.515625 -16.320312 L 5.515625 -15.785156 L 2.054688 -15.785156 L 2.054688 -16.320312 L 2.589844 -16.320312 L 2.589844 0 L 2.054688 0 L 2.054688 -0.535156 L 5.515625 -0.535156 L 5.515625 0 L 4.980469 0 L 4.980469 -7.578125 L 12.515625 -7.578125 L 12.515625 0 L 11.976562 0 L 11.976562 -0.535156 Z M 15.425781 -0.535156 "/></g></g></g></svg>