<svg xmlns="http://www.w3.org/2000/svg" xmlns:xlink="http://www.w3.org/1999/xlink" width="512" zoomAndPan="magnify" viewBox="0 0 384 383.999986" height="512" preserveAspectRatio="xMidYMid meet" version="1.0"><defs><g/><clipPath id="8d11b3c25d"><path d="M 0 0 L 384 0 L 384 384 L 0 384 Z M 0 0 " clip-rule="nonzero"/></clipPath><clipPath id="69cab54a45"><rect x="0" width="384" y="0" height="384"/></clipPath><clipPath id="39398aa736"><rect x="0" width="339" y="0" height="346"/></clipPath></defs><rect x="-38.4" width="460.8" fill="#ffffff" y="-38.399999" height="460.799983" fill-opacity="1"/><rect x="-38.4" width="460.8" fill="#2d1e45" y="-38.399999" height="460.799983" fill-opacity="1"/><g><g clip-path="url(#69cab54a45)"><g clip-path="url(#8d11b3c25d)"><rect x="-84.48" width="552.96" fill="#2d1e45" height="552.959979" y="-84.479997" fill-opacity="1"/></g></g></g><g transform="matrix(1, 0, 0, 1, 23, 18)"><g clip-path="url(#39398aa736)"><g fill="#ffffff" fill-opacity="1"><g transform="translate(0.320329, 270.808067)"><g><path d="M 16.84375 0 L 16.84375 -187.007812 L 67.125 -187.007812 L 67.125 -31.703125 L 61.179688 -31.703125 L 61.179688 -37.648438 L 140.566406 -37.648438 L 140.566406 5.945312 L 16.84375 5.945312 Z M 28.730469 0 L 22.789062 0 L 22.789062 -5.945312 L 134.621094 -5.945312 L 134.621094 0 L 128.675781 0 L 128.675781 -31.703125 L 134.621094 -31.703125 L 134.621094 -25.761719 L 55.234375 -25.761719 L 55.234375 -181.0625 L 61.179688 -181.0625 L 61.179688 -175.117188 L 22.789062 -175.117188 L 22.789062 -181.0625 L 28.730469 -181.0625 Z M 28.730469 0 "/></g></g></g><g fill="#ffffff" fill-opacity="1"><g transform="translate(143.607295, 270.808067)"><g><path d="M 171.15625 5.945312 L 126.941406 5.945312 L 126.941406 -78.148438 L 132.886719 -78.148438 L 132.886719 -72.203125 L 61.179688 -72.203125 L 61.179688 -78.148438 L 67.125 -78.148438 L 67.125 5.945312 L 16.84375 5.945312 L 16.84375 -187.007812 L 67.125 -187.007812 L 67.125 -110.097656 L 61.179688 -110.097656 L 61.179688 -116.042969 L 132.886719 -116.042969 L 132.886719 -110.097656 L 126.941406 -110.097656 L 126.941406 -187.007812 L 177.101562 -187.007812 L 177.101562 5.945312 Z M 171.15625 -5.945312 L 171.15625 0 L 165.210938 0 L 165.210938 -181.0625 L 171.15625 -181.0625 L 171.15625 -175.117188 L 132.886719 -175.117188 L 132.886719 -181.0625 L 138.832031 -181.0625 L 138.832031 -104.15625 L 55.234375 -104.15625 L 55.234375 -181.0625 L 61.179688 -181.0625 L 61.179688 -175.117188 L 22.789062 -175.117188 L 22.789062 -181.0625 L 28.730469 -181.0625 L 28.730469 0 L 22.789062 0 L 22.789062 -5.945312 L 61.179688 -5.945312 L 61.179688 0 L 55.234375 0 L 55.234375 -84.089844 L 138.832031 -84.089844 L 138.832031 0 L 132.886719 0 L 132.886719 -5.945312 Z M 171.15625 -5.945312 "/></g></g></g></g></g></svg>