<svg xmlns="http://www.w3.org/2000/svg" xmlns:xlink="http://www.w3.org/1999/xlink" width="512" zoomAndPan="magnify" viewBox="0 0 384 383.999986" height="512" preserveAspectRatio="xMidYMid meet" version="1.0"><defs><g/><clipPath id="9ccaa91e5d"><rect x="0" width="339" y="0" height="346"/></clipPath></defs><rect x="-38.4" width="460.8" fill="#ffffff" y="-38.399999" height="460.799983" fill-opacity="1"/><rect x="-38.4" width="460.8" fill="#2d1e45" y="-38.399999" height="460.799983" fill-opacity="1"/><g transform="matrix(1, 0, 0, 1, 23, 18)"><g clip-path="url(#9ccaa91e5d)"><g fill="#ffffff" fill-opacity="1"><g transform="translate(11.529763, 282.017501)"><g><path d="M 22.78125 0 L 22.78125 -181.0625 L 61.1875 -181.0625 L 61.1875 -31.703125 L 134.625 -31.703125 L 134.625 0 Z M 22.78125 0 "/></g></g></g><g fill="#ffffff" fill-opacity="1"><g transform="translate(154.816729, 282.017501)"><g><path d="M 171.15625 0 L 132.890625 0 L 132.890625 -78.140625 L 61.1875 -78.140625 L 61.1875 0 L 22.78125 0 L 22.78125 -181.0625 L 61.1875 -181.0625 L 61.1875 -110.09375 L 132.890625 -110.09375 L 132.890625 -181.0625 L 171.15625 -181.0625 Z M 171.15625 0 "/></g></g></g><g fill="#ffffff" fill-opacity="1"><g transform="translate(0.320329, 270.808067)"><g><path d="M 18.03125 0 L 18.03125 -185.820312 L 65.9375 -185.820312 L 65.9375 -31.703125 L 61.179688 -31.703125 L 61.179688 -36.460938 L 139.375 -36.460938 L 139.375 4.753906 L 18.03125 4.753906 Z M 27.542969 0 L 22.789062 0 L 22.789062 -4.753906 L 134.621094 -4.753906 L 134.621094 0 L 129.863281 0 L 129.863281 -31.703125 L 134.621094 -31.703125 L 134.621094 -26.949219 L 56.425781 -26.949219 L 56.425781 -181.0625 L 61.179688 -181.0625 L 61.179688 -176.308594 L 22.789062 -176.308594 L 22.789062 -181.0625 L 27.542969 -181.0625 Z M 27.542969 0 "/></g></g></g><g fill="#ffffff" fill-opacity="1"><g transform="translate(143.607295, 270.808067)"><g><path d="M 171.15625 4.753906 L 128.132812 4.753906 L 128.132812 -78.148438 L 132.886719 -78.148438 L 132.886719 -73.390625 L 61.179688 -73.390625 L 61.179688 -78.148438 L 65.9375 -78.148438 L 65.9375 4.753906 L 18.03125 4.753906 L 18.03125 -185.820312 L 65.9375 -185.820312 L 65.9375 -110.097656 L 61.179688 -110.097656 L 61.179688 -114.855469 L 132.886719 -114.855469 L 132.886719 -110.097656 L 128.132812 -110.097656 L 128.132812 -185.820312 L 175.910156 -185.820312 L 175.910156 4.753906 Z M 171.15625 -4.753906 L 171.15625 0 L 166.398438 0 L 166.398438 -181.0625 L 171.15625 -181.0625 L 171.15625 -176.308594 L 132.886719 -176.308594 L 132.886719 -181.0625 L 137.644531 -181.0625 L 137.644531 -105.34375 L 56.425781 -105.34375 L 56.425781 -181.0625 L 61.179688 -181.0625 L 61.179688 -176.308594 L 22.789062 -176.308594 L 22.789062 -181.0625 L 27.542969 -181.0625 L 27.542969 0 L 22.789062 0 L 22.789062 -4.753906 L 61.179688 -4.753906 L 61.179688 0 L 56.425781 0 L 56.425781 -82.902344 L 137.644531 -82.902344 L 137.644531 0 L 132.886719 0 L 132.886719 -4.753906 Z M 171.15625 -4.753906 "/></g></g></g></g></g></svg>